/* XPM */
static char *_e6517b887ab4620c836023cf7610f75qgSGowSh9aiIa4W2[] = {
/* columns rows colors chars-per-pixel */
"64 64 16 1 ",
"  c black",
". c #020202",
"X c gray1",
"o c #060606",
"O c gray4",
"+ c #111111",
"@ c #191919",
"# c gray13",
"$ c #3A3A3B",
"% c gray17",
"& c #707071",
"* c #4C4C4C",
"= c gray57",
"- c #ABABAC",
"; c #D0D0D0",
": c gray71",
/* pixels */
"                                                                ",
"                                                                ",
"           X+o+*@.                               .              ",
"           X+oO#O   XOX                            .         XX.",
"            X. X  . o+O                         .     .     .oOO",
"        X@O         .XX                          .  .   X    oOo",
"        O*#                                           o##X .  ..",
"        X@O     XOo.                            X+O. o%&&@X     ",
"         .    . X++X                            O%#o O$-=%o     ",
"            .    ..                             o#@X .+$$O      ",
"         oOo                          X.        .X.    oO.      ",
"        .O+o                         X+O                .X      ",
"         .X                  XX      .+O         .              ",
"                             o+o      ..                        ",
"                           .X#$#X                               ",
"                          XO#&-&#O.         X.                  ",
"          .               XO%=;=%O.        +$+                  ",
"            .               o$&*O          +$+                  ",
"          .X++Xo+X          .+#+       .    X.        ..        ",
"         X@OOOX@$+           oo.   .   ..   .       .o. .       ",
"         X+o  .+%O   .       .. X++    ..  .        +%O         ",
"                  .  .          X+O                 @$O  .      ",
"                    .                       .       o+X  .XX    ",
"                                                         X++.   ",
"                                                    ..   .OO    ",
"                                                    o+X       . ",
"                     .                              o+X         ",
"                                                    .o          ",
"o                  .  X                                     XOo ",
"%.              .    .o                              .   X X@$#.",
"@                 . .@$+.     XX                           O@%@ ",
"X    oX            .O*=*O    o+O                 Xo.       XooX ",
"    o@+             .%&%X    Xoo                 O@o            ",
"     oo            . O+o      .                  oOX  .         ",
"      .                                         .+@o            ",
"     ..                                       .o+*&#oX          ",
"                   .                          X+$-;*@o          ",
"    X.                .                       .O%=:*+X          ",
"   X+O              .. .                        +$*@X           ",
"   #$%X                        OO                O@o         oOX",
".o@&-&#o.                      ++                .X.         ++o",
"XO%=;=%OX                      XX                            XX ",
" .O$&*O.                                                        ",
"   +#+.                           .                             ",
"   .Oo                              .                           ",
"                                                                ",
"                                                                ",
"                                                 Xo   oOo       ",
"                         +#O.                    o+X  @$@X      ",
"                         @$+.                    o+X  +%+X      ",
"                         O+o                                    ",
"                                                .               ",
"                                                                ",
"                                                 Xo.      .     ",
".                                 ..            X#$O            ",
"+o              .o               .++            .@%O            ",
"OX              O@o              .OO             .o.            ",
" .              XOX                        .    .               ",
".                   .                          X...             ",
"..                   .                    .   o@O               ",
"    .               .                       .o#&$O  .           ",
"#O.              .                          X+*-&#X             ",
"&%X                                          o%&*+. .           ",
"                                                                "
};
