/* XPM */
static char *_d2e9b90d1064296bc804f9402dcdda1O1bk0JO8wpFzM1Tq[] = {
/* columns rows colors chars-per-pixel */
"64 64 225 2 ",
"   c #040406",
".  c #0C0C0E",
"X  c #0D0D0F",
"o  c #0E0E10",
"O  c #0F0F11",
"+  c #101012",
"@  c #111113",
"#  c #121214",
"$  c #131315",
"%  c #141416",
"&  c #151517",
"*  c #161618",
"=  c #171719",
"-  c #18181A",
";  c #19191B",
":  c #1A1A1C",
">  c #1B1B1D",
",  c #1C1C1E",
"<  c #1D1D1F",
"1  c #1E1E20",
"2  c #1F1F21",
"3  c #202022",
"4  c #212123",
"5  c #222224",
"6  c #232325",
"7  c #242426",
"8  c #252527",
"9  c #262628",
"0  c #272729",
"q  c #28282A",
"w  c #29292B",
"e  c #2A2A2C",
"r  c #2B2B2D",
"t  c #2C2C2E",
"y  c #2D2D2F",
"u  c #2E2E30",
"i  c #2F2F31",
"p  c #303032",
"a  c #313133",
"s  c #323234",
"d  c #333335",
"f  c #343436",
"g  c #353537",
"h  c #363638",
"j  c #373739",
"k  c #38383A",
"l  c #39393B",
"z  c #3A3A3C",
"x  c #3B3B3D",
"c  c #3C3C3E",
"v  c #3D3D3F",
"b  c #3E3E40",
"n  c #3F3F41",
"m  c #404042",
"M  c #414143",
"N  c #424244",
"B  c #434345",
"V  c #444446",
"C  c #454547",
"Z  c #464648",
"A  c #474749",
"S  c #48484A",
"D  c #49494B",
"F  c #4A4A4C",
"G  c #4B4B4D",
"H  c #4C4C4E",
"J  c #4D4D4F",
"K  c #4E4E50",
"L  c #4F4F51",
"P  c #505052",
"I  c #515153",
"U  c #525254",
"Y  c #535355",
"T  c #545456",
"R  c #555557",
"E  c #565658",
"W  c #575759",
"Q  c #58585A",
"!  c #59595B",
"~  c #5A5A5C",
"^  c #5B5B5D",
"/  c #5C5C5E",
"(  c #5D5D5F",
")  c #5E5E60",
"_  c #5F5F61",
"`  c #606062",
"'  c #616163",
"]  c #626264",
"[  c #636365",
"{  c #646466",
"}  c #656567",
"|  c #666668",
" . c #676769",
".. c #68686A",
"X. c #69696B",
"o. c #6A6A6C",
"O. c #6B6B6D",
"+. c #6C6C6E",
"@. c #6D6D6F",
"#. c #6E6E70",
"$. c #6F6F71",
"%. c #707072",
"&. c #717173",
"*. c #727274",
"=. c #737375",
"-. c #747476",
";. c #757577",
":. c #767678",
">. c #777779",
",. c #78787A",
"<. c #79797B",
"1. c #7A7A7C",
"2. c #7B7B7D",
"3. c #7C7C7E",
"4. c #7D7D7F",
"5. c #7E7E80",
"6. c #7F7F81",
"7. c #808082",
"8. c #818183",
"9. c #828284",
"0. c #838385",
"q. c #848486",
"w. c #858587",
"e. c #868688",
"r. c #878789",
"t. c #88888A",
"y. c #89898B",
"u. c #8A8A8C",
"i. c #8B8B8D",
"p. c #8C8C8E",
"a. c #8D8D8F",
"s. c #8E8E90",
"d. c #8F8F91",
"f. c #909092",
"g. c #919193",
"h. c #929294",
"j. c #939395",
"k. c #949496",
"l. c #959597",
"z. c #979799",
"x. c #98989A",
"c. c #99999B",
"v. c #9A9A9C",
"b. c #9B9B9D",
"n. c #9C9C9E",
"m. c #9D9D9F",
"M. c #9E9EA0",
"N. c #9F9FA1",
"B. c #A0A0A2",
"V. c #A2A2A4",
"C. c #A3A3A5",
"Z. c #A4A4A6",
"A. c #A8A8AA",
"S. c #A9A9AB",
"D. c #ABABAD",
"F. c #ADADAF",
"G. c #AFAFB1",
"H. c #B1B1B3",
"J. c #B2B2B4",
"K. c #B3B3B5",
"L. c #B4B4B6",
"P. c #B6B6B8",
"I. c #B7B7B9",
"U. c #B8B8BA",
"Y. c #BABABC",
"T. c #BEBEC0",
"R. c #BFBFC1",
"E. c #C2C2C4",
"W. c #C5C5C7",
"Q. c #C6C6C8",
"!. c #C7C7C9",
"~. c #C8C8CA",
"^. c #C9C9CB",
"/. c #CACACC",
"(. c #CBCBCD",
"). c #CCCCCE",
"_. c #CECED0",
"`. c #CFCFD1",
"'. c #D0D0D2",
"]. c #D1D1D3",
"[. c #D2D2D4",
"{. c #D4D4D6",
"}. c #D5D5D7",
"|. c #D6D6D8",
" X c #D7D7D9",
".X c #D8D8DA",
"XX c #D9D9DB",
"oX c #DADADC",
"OX c #DBDBDD",
"+X c #DCDCDE",
"@X c #DDDDDF",
"#X c #DEDEE0",
"$X c #DFDFE1",
"%X c #E0E0E2",
"&X c #E1E1E3",
"*X c #E2E2E4",
"=X c #E3E3E5",
"-X c #E4E4E6",
";X c #E5E5E7",
":X c #E6E6E8",
">X c #E7E7E9",
",X c #E8E8EA",
"<X c #E9E9EB",
"1X c #EAEAEC",
"2X c #EBEBED",
"3X c #ECECEE",
"4X c #EDEDEF",
"5X c #EEEEF0",
"6X c #EFEFF1",
"7X c #F0F0F2",
"8X c #F1F1F3",
"9X c #F2F2F4",
"0X c #F3F3F5",
"qX c #F4F4F6",
"wX c #F5F5F7",
"eX c #F6F6F8",
"rX c #F7F7F9",
"tX c #F8F8FA",
"yX c #F9F9FB",
"uX c #FAFAFC",
"iX c #FBFBFD",
"pX c #FCFCFE",
"aX c #FDFDFF",
"sX c #FEFEFF",
"dX c white",
/* pixels */
"e A a B b < 7 F 0 w c a b i { e F A 0 i F z 0 6 2 _ j E b _.dX9X6Xe z 2 b j F b B L e 0 _ O B E 0 j r.j i 0 | b B 6 i A d 0 6 B ",
"H 2 3.U z P i d E.a - m y a l j A 6 0 L j j e 0 z 6 d e <.9X{.$X/.A z *.z i | e 0 * 1.b > d E e z ^ j.j d - 2 z e i k i F e A 6 ",
"6 H ' A 0 e l z j a e 6 b._ #.i d e A z D | *.j i g l b b 9XeX/.|.z d e F z U z b i z z 0.b L B d A i 6 d y.i 1 y.z L A i 0 i u ",
"3 - P 7 i ! %.j d A E b C d w.U U 1.E 0 i d - # i i z.b E :XtX|.=XA 6 i i 0 *.e V V j j 0.z z e E * j B i P.j f F A *.B b.B B e ",
"d b ! B i l i H #.P d < - w a 6 6 i E F j d 0 b L g j 0 E 6XiX:X|.6 A b U B e d d F A d i z j d 0 6 A B * j |.6 L i *.d ^ * * d ",
"d F.{ %.E w j d j y g l 2 3.w b 6 B 0 d i e b e 6.y i i d 9X|.$XoXN.1.j {.j b >.E 6.e e A b z B d e i j b 0 j e j U z | 2 B A d ",
"w o.6 l y g w g B j w U 6 c y 7 i z _ i z 6 c F X.z j i E %X6X2X|.>.0 b i e A 0 0 F b e i 0 i e i e i d d e z i i #.6 e B z b 6 ",
"<.P { j b d m l l P 6 j T L E 0 e L j w ^ d b B 6 i 6.e 0 oX{.eX/.0 0 b B 7 j A r.) E E 6.6.j j 2 6 e z i A e d n j ] 0 z 2 e d ",
"U b e b y 7 l B l C y y e c F F l i j c b g 6 g e 0 e w.i =X{.dX=Xe 1.0 i j 6 2 z e i F | e e j _.d j j d k L B i j i 0 e 2 0 0 ",
"7 > m.g A E y g 3 D < 0 z d A i B z > d z z d 0 z @.z > * _.9X3X_.L 6 | d E i ] 7 e b #.0 2 U B d z >.U e 0 6 F _ _ U # q e A e ",
"f.b z y D V.P A |.z < 0 d T F d * j 2 z o.z d.e 0.d d e d E e a i 6 i 0 6 i i e ] d e z k r.L j e j d.F B n | A 6 0 6.b 0 0 E i ",
"a y.C j - ! 6 > 3 / l y L c { X b 0 e 6 j _ 2 ^ T ^ e d e j | e B b E z z 2 0 d A z z * 0 b 0 A e i B e e B d e U e e 2 2 j L j ",
"a m > i z B 6 D B B g { y.7 B P 6 F 0 E _ 0.7 d 2 e A U y N.m.j j i j e b V.0 i b.*.>.F i i 0 B 2 j 7 B A 2 | d r.e i i i #.0 0 ",
"H y g U e j y > % y 0 D A A y c i _ e B 6 z ^ b z d e z 2 >.T -.i y.j F d | i 2 d 2 d F A > j ^ i 7 2 d F j j z D.F ] j e E 6 > ",
"3 B g z E z l r.a >.b B b y./ w z e o.e > y.e b p._ 6.z j L ].%.> i U 0 b j z A d j 2 0 i F F _ e #.d e F f b > i # F 0 6 U e A ",
"z i F j a g w @.w g y c H j 6 <.j e B b ] 6 *.B i 6 d b 6 D A # U d z d d e b 2 b.A 0 0 *.2 ] 0 > 6 j 6 z i i L e i q | 2 ] j d ",
"m F j.l ! | w C z a b 1.m E j < d 6 e iXd 2 2 6 e d F ! i 9X@X6X:Xz d i 0 b d z z b i ,.i E f L d F i e z e i e d B ] F 2 d b d ",
"z.o.F | w i _ ] l L ] y j m c y b y E > 3.d 3 a d 0._ b { :X/.dX$XL 6 z.> 2 0 n #.^ b A B ] j z z B ^ 0 z e j 0.i A # z ^ 0.d z ",
"0 D y 0.B i o.F.g z O 2 b 2 S.a m d e l a L 6 P b i e i U =X:XeX$Xj 1.d.e U 0 0 z z j u d 2 L e 0 b.b e e d q 2 * 6 0 d b d 2 * ",
"i ^ g C z y c g d 0 j e g i a w c e A b.b j ' j j 3.z z j Q.2X=X6Xi # i B ^ i E 2 A e z e 6 z j.E F i j b i b ] e z j e 0 i z E ",
"H 0 y g P a c d e z g 6 z D ] c < j.< w b j j w F < e < F =XeX9X_.b # O U f f i d 0 u z _ j L e 6 > L e b A n i i y.i i d e F i ",
"2 3 l w   ! d b m 0 a e a 0 B g { 6 z i l 2 o.d e g 6 3 A oXoXeXQ.F * L z L i _ 0 e d e ^ r.e 0 B 0 B L b e E e e >.d e i 0 0 b ",
"e 0 3 z c * C 0 ! 0 ' z y 6 F i j X.3 B d j D z 6 ! B | d K.:X9X:Xy.z 6 j F A d 2 j e F n 2 B e F e 2 U b ^ 0 d F * d L U 7 z z ",
"< y w.i g i a %.e > c m.2 j 0 z g * z P < *.V.D B U b j.l T.=X9X2XV B z 0 L j z i e d e 0 j i z 0 j u e d i d d j 2 j F e b i j ",
"d m y c 7 j e d e D C b i b b a E i l w m m 6 z g w.i 6.3 .XdX=XeXk b b B 6 E b A e 6 A i 6 ] e ^ * L 0 ^ 0 b d _ d q ..e j z * ",
"-.F d U l | E L b i j i a ^ g c e C w X _ b b z d _ c < a K.Q.qX6Xi B e d b A i F *.j i i d i _ F d e F d i F i _ A > | ^ ^ e b ",
"P > F 6.w B > y 6.e d j 3 w _ g 6 w y *.2 C 0 y X.m l 6 7 Q.eXdX6X0 | 0 F b j e j b q F A 0 B e 0 0 z 0 0 o.j 2 i e L A b 6 _ e ",
"g w d g F A e w d C A d 7 C z l e j / l a B g 6 w * 0 ] l $X2XW.:X^ 6 E 0.d * z i j o d 2 # B i d ) d d e d % o.L d E d e 6 k A ",
"E c 7 { A A *.g B w T g 3 a z B D { P B j 2 6 0 % w b A c P.9X9X$XV j z 2 | j 2 o.d d j 0 i d 6 0 Q.0 i L e #.6 i U N.j i i *.0 ",
"%.d b A l z 3 ^ D 6.b c d /.2 e 0.m 0 / k.w | w z o.i y e B a < e z > B u E 0 j 0.z i *.z > B 0 6 b B 2 e i 0 e i d r.U d >.] i ",
"b e z m y 0 6 F | -.H y X.F 7 a m d i H b P 6 C * e g m F w F w j.B d 0 z L j e e L #.z j j b B F d * d i i 2 i d 0 B ] #.A ] d ",
"m i g < / w e y e / ! @.B c l l ] z c F / j F y b d i l e e a ' y.0 d j z ] >.6 d f e z A _ z A F z > d ^ L 1.Y.6 * j d e o.u U ",
"z > d r.e r.j.d e j j e ] j ^ i A z d _.d >.j j z B b i e 0 i F 0 Q 0 ^ e z.i i i i d U d j e * d i e i e 0.>.F 2 6 U j #.* j.z ",
"z 0 ^ 0 >.6 z i g z 6 >.2 E j ] d b z i B b 0 ^ F _ e L U z j B z i b z > A z z E 0 e d i b 0 e 6 z 0 B d * 6 f 7 | j 0.d z L i ",
"B B B 6 i j e 0 F B ^ j d 0 e e z 6 > b B d z A d d B _ b 6 0 e z U d j q F | 0 e d e i e j *.j B 0 6 * 0 z.L L e j e j e 2 2 L ",
"2 e i A @.U _ z j z A 0 d 2 L 0 ] b U j A e j F e E 0 F B U U e 6.A i d 0 A e 0 > j U 6 i A j 1 j d e k z B e j b j z F e B d > ",
"A a i e A j e A B j B d E B > i U d i j j ^ d e F ^ A e z $X$X=X2Xe K.* 0 y.j d A 6 6 j e 0 6 F 6 z 6 B d d n 2 0 A e e A *.j j ",
"L e 1.B U F d 2 #.0 B _ ] z e i B ^ # j E 0.d 6 j j d e z oX2X_.=X0 e B i j z 0 6 A j.i j L z ] 6 6.d z z * Q z | 2 #.j A ] 2 d ",
"^ L j i > z z z 0 o.b e L 0 j i d 2 b 0 0 d _ i 2 z 6 F A 2XiX:X=Xi q f d 6 b A U ^ B _ j e q b 6 j i j e j e j d U > B e B e i ",
"L z i i d B e A d * ^ U L j e d d F d A.F B j 0 d 0 b d * :X9X|.|.>.b j j d >.F 2 i d F 2 j B *.i f d e U e o.b i _ * z A o.U b ",
"i i d A 6 | z B L 6 z B U ^ z j 6 E d b F B F d d A F e ^ =XiX$X=Xj i i i P.e e j b j d j F e j U.z U E 0 b y.L k f i j z 6 j > ",
"] B r.d B >.F b e *.j b z F > j i F A e z e b U j B | 0 F eX6XoXT.b e O b d #.z E i B B d A L _ A _ 6 ] e d 0 z d i * i z 6 j ^ ",
"#.b U B z j j j 2 2 z b e A #.0 6 N.* 7 B B i b i B d B A :X:X6XeXd z B B j b 2 y.A d K.e E j 2 r.Y.b A 0 e z o.i o.V.i 6.b 6 d ",
"D.B F 6 0 b E j 0.j.F 1.B d m i B B z e e 0 j *.F 0 b >.A iX2X=XeXB b 0 0 e y.j j 2 U d 0.r.d B #.*.# z e i 6 ) 6.6 6.z u _ O E ",
"d.0 0 e j 6 o.E 2 U b j B 6 U 6 B 0 B 0 d b 6 i B A 2 d 1.9XiX6X:XU ..b ] A b B 0 d.i j 6.i f z j 2 j e i F 2 e U e z F i # B L ",
"d B i F A 0 0 0.d d b b 6 z ^ i j A b 6 *.< U i 6 z A e d dX:XdXeXz B j e e F 2 $Xi d d z b 6 i O A 6 # j z b _ i 0 _ f j 6 e i ",
"U e > i d z z d e b d j 0 e j e e b j z B 0 i L | z z b d /.2X6XoXj d z 6 e d B b ] o.6 A z j j ] 6 2 e # U > N.U i i e e b >.2 ",
"2 6 z > i 0 r.A b F e j A U 6 1.b 6 d A i e d b j L d 2 0 $X$X2X9X0 i 6.] d B i ^ i 1.2 e i i V.z 6 e z L i ^ 0 A.B _ O j i 6 ] ",
"2 j U A 6 E B y.z *.e i i e U P.2 z F i A B L d j 0 #.^ E 0 > i b L d.i > E j E B V z j Y.0 z d.| d L 0 0 _ e d i d F 0 >.d e j ",
"b F 0 2 B 0 b 6 0 A 0 _ b j b U b B | B z 6.e 0 A j 6 i z i i i e i U 0 L o.i d d z i z | B U d L j i u b j A i e d 6 b k B i L ",
"b j i E j A j B z i F g 0 b #.E A 2 > e z z A 2 *.i 6 i _ i L i F b 2 0 A e L 0 6 T 6 A ] e B 6 e ^ U F i B 0 i i L F d 6 j B E ",
"^ E b 6 B i e B ^ ^ i e j A d B b i i L b _ U U i ^ j j j * B F e B d 2 d.e d #.u f L e d >.d 6.i j j 1.d i e i b i U z ^ 0 i z ",
"z U U j B * b z d A o.F 6 j 0 1.| i z B d E L e _ 0 j ^ z z d o.0 2 L B A e b >.] b i B U ] e d.d z z j u 0 U b e L z.#.e u d 0 ",
"B 6 U F j r.B i E *.b.E _ A b 0 * 0 2 o.L b b 2 z *.z i d B 6 z j d 2 j ] i z b j e ] 2 j # ^ F 6 B > 0.A D.i z i i 0 0 A 6 6.o.",
"B e b.U 6.^ N.e B z B b e U F d i > e L 2 b i d e K.A j ] 6 F > d 6 >.b.6 0.e z V 0 F i 0 i q B 0 j e i b A 0 0 B e S d 0 d E j ",
"z e z b B i > e > j b U E b b 0 d 0 B U d d e b U ^ #.z 0 6XiXeX=XA >.d L d i b j 0 F j b > u > j i *.B z i 1.e d e e 2 F e b { ",
"d ^ e d e | U d j ^ 6 0 z 6 B L z j ^ i b U i U A i z ^ B $X2X|.2Xd 1 d ] B d q e b * L F j.e i i A 2 f j B b z z V 0.0 2 d j d ",
"6 d i T B F j i U A i 2 i F z b #.B e > B z e i i j i d j.eX$X_.oXE z z e i d q e i d j e U 0 e 2 _ 0 i #.z i f F f 0 d | * e L ",
"G.e d E d 0 d B z > b 6 i j d * j z z 6 d i B 0 0 d ^ A * Q.$X9X/.6 i 0 F B b i A 2 0 L >.F E *.b j 1.z E j z ,.z e ^ B # 0 z i ",
"> @._ L d z j U 0.K.L 6 e z E b e e b e d z b p.d #.0 e F 2X2X6XQ.d 0 z B b e 2 d ^ i e i A *.B . 6 6 y.b e 2 B 6 z O B d 0 _ j ",
"j F {.b b A A * > # b.B d 2 B U > U 6 0 i j | 0 E A *.d d /.eX2X/.e V A d z i i 0 | j j > d d e 0 - i d - 6 F _ 2 L z d b U | e ",
"z i 2 2 e j i i j.d d j A b e b z d _ e U A o.0 i * 6 L B oXdXiXeXi z d e i _ e z _ y.F B j 6 i 2 b z e e o.e d e 0 > 0 d A F ^ ",
"i L > E F 2 j i F i z 0 E * i i >.i 1.e F d A >.b j j 0 A iX6XQ.9Xd #.z E z #.2 z 6 0 B e K j F j b 0 B V E U b d 0.0 L _ j z o.",
"A i e E E z e b >.6 V.j z d ^ | e e z E 6 i >.j B 0.A z.B iXeXeXoXj j F i 2 z z z *.#.B *.0 b L j i z e z 2 b i e >.e i 0 d ] F "
};
