/* XPM */
static char *fc95c8a2b5904f82f0af30b01d60f11a8psGLzJY2gpQ2Chm[] = {
/* columns rows colors chars-per-pixel */
"64 64 242 2 ",
"   c #000001",
".  c #090302",
"X  c #000B00",
"o  c #03010A",
"O  c #09010A",
"+  c #060905",
"@  c #011300",
"#  c #031C00",
"$  c #0B1B00",
"%  c #0C1500",
"&  c #101E00",
"*  c #040411",
"=  c #0B2301",
"-  c #0C2B00",
";  c #072300",
":  c #162701",
">  c #142D00",
",  c #1D3601",
"<  c #193904",
"1  c #132F08",
"2  c #223C05",
"3  c #313B00",
"4  c #194100",
"5  c #195806",
"6  c #1D4D1B",
"7  c #1B5215",
"8  c #234103",
"9  c #214209",
"0  c #244C06",
"q  c #354E0C",
"w  c #265A08",
"e  c #365605",
"r  c #244E1C",
"t  c #2A4A16",
"y  c #2A5C1D",
"u  c #255619",
"i  c #3C5B1A",
"p  c #365718",
"a  c #334815",
"s  c #1C6A05",
"d  c #226201",
"f  c #236B02",
"g  c #2A6D00",
"h  c #2B6B0C",
"j  c #256308",
"k  c #376909",
"l  c #2C7401",
"z  c #257603",
"x  c #337D01",
"c  c #337B0C",
"v  c #37770C",
"b  c #2B6314",
"n  c #286916",
"m  c #33641B",
"M  c #376619",
"N  c #387712",
"B  c #195122",
"V  c #294F20",
"C  c #265622",
"Z  c #1F6020",
"A  c #367520",
"S  c #3F6824",
"D  c #45770C",
"F  c #446A14",
"G  c #46761C",
"H  c #52790E",
"J  c #495B21",
"K  c #466727",
"L  c #497A26",
"P  c #557B2B",
"I  c #4B7939",
"U  c #557135",
"Y  c #3A8501",
"T  c #358A01",
"R  c #398606",
"E  c #3B9501",
"W  c #3D950D",
"Q  c #3E8413",
"!  c #3B8D14",
"~  c #398922",
"^  c #44860E",
"/  c #448A06",
"(  c #439907",
")  c #559A0B",
"_  c #458314",
"`  c #4B8C17",
"'  c #44871A",
"]  c #498919",
"[  c #558D19",
"{  c #459614",
"}  c #439B13",
"|  c #4A9719",
" . c #55951C",
".. c #539C19",
"X. c #51840D",
"o. c #66931E",
"O. c #4CA405",
"+. c #54A509",
"@. c #5CB40D",
"#. c #4CA518",
"$. c #53A21B",
"%. c #59A717",
"&. c #58B416",
"*. c #65AE03",
"=. c #68B809",
"-. c #70BE07",
";. c #66A81F",
":. c #66B917",
">. c #70BC1C",
",. c #488723",
"<. c #5C8B2E",
"1. c #578827",
"2. c #549524",
"3. c #5C942C",
"4. c #569829",
"5. c #5C8E36",
"6. c #51912E",
"7. c #609928",
"8. c #638A3A",
"9. c #699938",
"0. c #719639",
"q. c #618E25",
"w. c #5AA628",
"e. c #58A92A",
"r. c #6AA42C",
"t. c #65A927",
"y. c #75AB2E",
"u. c #64BA24",
"i. c #6DB22B",
"p. c #67B828",
"a. c #68A635",
"s. c #74AA3A",
"d. c #69B635",
"f. c #78B739",
"g. c #73BA20",
"h. c #6AC70B",
"j. c #78CC0B",
"k. c #76D10F",
"l. c #6BC415",
"z. c #68C41B",
"x. c #72CB14",
"c. c #76CC19",
"v. c #7BD215",
"b. c #72D11D",
"n. c #69C52C",
"m. c #66C427",
"M. c #79C628",
"N. c #79D528",
"B. c #6BC035",
"V. c #7BCB32",
"C. c #77C635",
"Z. c #79D43A",
"A. c #6FD021",
"S. c #699641",
"D. c #6C9042",
"F. c #76A847",
"G. c #78B845",
"H. c #7DB355",
"J. c #7BB560",
"K. c #7AC443",
"L. c #7BC846",
"P. c #86B83F",
"I. c #83B323",
"U. c #87DC19",
"Y. c #8FDA0E",
"T. c #8DE318",
"R. c #93E61A",
"E. c #9CE719",
"W. c #9DF11F",
"Q. c #ABEA1B",
"!. c #A4EB1B",
"~. c #A9F11D",
"^. c #B7F31D",
"/. c #B0EE1D",
"(. c #84CB27",
"). c #84DB2B",
"_. c #89D928",
"`. c #93DD28",
"'. c #87C83A",
"]. c #88D635",
"[. c #95DC34",
"{. c #99DC3D",
"}. c #8CE229",
"|. c #98E827",
" X c #9BF023",
".X c #9AF62F",
"XX c #8BE435",
"oX c #9CE43D",
"OX c #97E436",
"+X c #9BF636",
"@X c #ABED24",
"#X c #A6EB2D",
"$X c #A3E827",
"%X c #ABF223",
"&X c #A3F32C",
"*X c #AAF42A",
"=X c #A7F726",
"-X c #B5F422",
";X c #B7F727",
":X c #A3EC31",
">X c #A5ED39",
",X c #A4E735",
"<X c #ACF532",
"1X c #B4F838",
"2X c #809E54",
"3X c #89B947",
"4X c #87BE58",
"5X c #8AB44F",
"6X c #92AC6C",
"7X c #90B764",
"8X c #83C343",
"9X c #83CC43",
"0X c #8BCA47",
"qX c #92C647",
"wX c #8BD442",
"eX c #87D943",
"rX c #99DA47",
"tX c #99D959",
"yX c #8DD452",
"uX c #A1D75D",
"iX c #A0DB4B",
"pX c #9CE546",
"aX c #9BE556",
"sX c #A6E648",
"dX c #A5E859",
"fX c #A9F45B",
"gX c #99D366",
"hX c #A3CD65",
"jX c #ACDC6F",
"kX c #9AE064",
"lX c #AAE465",
"zX c #A6E668",
"xX c #B4E96E",
"cX c #A6E372",
"vX c #AFEB74",
"bX c #B4EC77",
"nX c #BBF87A",
"mX c #ADF764",
"MX c #C1F576",
"NX c #B6D886",
"BX c #B9F385",
"VX c #C7E898",
/* pixels */
"                                o O         X     o o     + o o * o   .         o       o o   X                                 ",
"                                o o             o   * o         *     o . .   o o o .   o                                       ",
"                                  o       X         o       X + 1 X       .             . o                                     ",
"                                    o             O   o   X   : K ; X   .     o         o o                                     ",
"                                    o               O o   X X P S.0 X   +     .       o o                                       ",
"                                      o           o       X e hX3XG -     . .       X     o o                                   ",
"                                              o   O   X @ , 0.MXf.3.u X     O                                                   ",
"                                          o .   O   +   @ 8.3XnXi.2.K @ .   o .             o o                                 ",
"                                              o O   X   i F.P.nX;.` <.< X o o O                                                 ",
"                                            o   o     @ 0.r.P.nXf.] 9.P @   + o .   X       + o                                 ",
"                                                o     , 5XH tXBXvXN a.S.t X   + O           o                                   ",
"                                o                   X 8.5XX.xXBXBX`  .gXS X X   o     X                                         ",
"                                                  X a NXq.r.bXxXBXa.^ cXS.M @                                                   ",
"                                o               X : 6XNXD r.cXcXvXr._ G.cX5X- X   . .   o                                       ",
"                                  O             X U VX0.k 9.gXcXxXf.` w.zXa.K     o       o                                     ",
"                                +           o   % 6XVXk k G.gXkXlXuX_ ` dX9X9.$   O .   o                                       ",
"                                o     +       X q jXVX] v L.9XdXlXvX2._ aXmXr.e     +       .                                   ",
"                                o             @ 0.bXjXN G.K.8XaXdXlXa.R C.aX'.[ >                                               ",
"                                            X a hXxXF.' tXL.V.aXdXdX8XY $.aXaXy.i X   o o     o                                 ",
"                                    O       X 2XjXzX4.6.kXyXC.wXrXrX'.Y T yXsXf.q.: X o o                                       ",
"                                . .   O + X 8 hX0XgX9.w.zXaX0Xg.{.oXpX/ l L.fXpXy.F   o o .   o                                 ",
"                                          @ S.uXG.kXa.d.zXfXwX'.[.oXpX@.l d.aX[.'.7.; o   . o                                   ",
"                                  .     X a uXwXG.L.2.yXzXfXiX].(.oX[.V.g w.V.N.].i.y   .   +                                   ",
"                                  .     = 8.dXi.C.| Q dXdXsXsX(.(.[.pX].l { ].XXN.C.L : .                                       ",
"                                    +   F hX'.9XL.z l tXiX>XsX(.(.OX`.]...Y V.}.A.Z.4.i X   X                                   ",
"                                  .   $ 5X'.i.Z.B.T ( '.{.,X,X1X,X#X>XsXp.Y z.A.z.m.0X<.@ .                                     ",
"                                  X X K tX(.&.#.d.{ +.(.,X,X$X#X*X$X&X>X(.O.l.A.Z.m.V.G.p   X                                   ",
"                                o   : 7Xf.n.u.e.#.} :._.`.,X@XQ.@X$XE.|._.x.x.N.m.#.+.0X8.X   *                                 ",
"                                    K 4Xt.+.u.u.W C.}..X|.<X;X;X;X%X*X&X|.}.v.b.n.E O.eXs.p X                                   ",
"                                  # 8.a...} #.T z V.|.W.#X1X;X;X;X-X;X@X&XU.k.x.:.E @.:.t.k X .                                 ",
"                                  = 5.` R W #.T s :.T.T.$X@XQ.^./.~.@XE. Xv.k.x.@.( O.O.z.[ :                                   ",
"                                  2 1.2.%.$.B.L.XX).|.T.%X;X^.^.^.^.%X@X&X|.U.x._.A.x.+XOXdXJ .                                 ",
"                                  & D ;.p.M.V.].).}.R.R.%X^.Q.;X-X/.~.W.R.|.XX`.#X`.T.<X=XsX3 .                                 ",
"                                . @ 8 4.C.M.]._.h.c.U.R.E.E.Q.%XQ.Q.!.E.R.v.+.*.>X!.%X*X1XI.% . .                               ",
"                                O . > w D g.yX+.Y l.c.T.W.%X;X!.~./.~.W.|.x./ g.E.Y.Y.`.sXH   .                                 ",
"                                o   @ w D w.aX%.T C.XX}..X X~.=X=X=XW.W.|.=.x {.OXY.-.[.qX8 X o                                 ",
"                                  . @ < 1. .t.9X..w.:.N.+X.X X=X=X.X+X+XXXO.T wX[.*.*.iX<.@   *                                 ",
"                                  .   = G 2.d.9X| s R &.&.h.k.h.k.k.h.&.#.z ( eX].=.{.'.2 X o o                                 ",
"                                +   + $ 0 [ ..| 4.s Q #.u.Z.V.z.l.z.z.&.! f ..:.@.>.iXD X .   o                                 ",
"                                    . + < G ..| ,.n Z ~ ~ ! / $.+.&.&.} h d d.) >.(.3X, X                                       ",
"                                  X o   = M 3.` ,.b 7 Z Z s n g T n.n.| 5 5 2.%.-.{.0.@   .                                     ",
"                                    o   % 9 q.,.G m 6 B Z Z u n } n.n.| 5 7 6.+.{.rXq     .   +                                 ",
"                                    o   X = P 5.G L r 6 B C u n | n.e.! 5 ,. .i.sXo.X   .                                       ",
"                                  o   +   X M S.,.G w 6 C r C j } p.e.z 5 H.[ '.P.<   O . .                                     ",
"                                      .   X , D.7.D M 7 V r b j ..&.e.d 5 H.) qXP X + .                                         ",
"                                            @ U F.v ,.0 t C w N $.$.6.w d a.t.s., X       o                                     ",
"                                            X t F.1.1.w V V w N $.| ~ w f w.r.F X         o                                     ",
"                                        o     ; 5.3.,.w V V b N | 4.A 5 g 3X<.-     . X o o                                     ",
"                                      .       X u F._ N w C b N | ,.A 5 a.F.9 X   .                                             ",
"                                          o     = S.3.9.5 5 M v _ ' n n 4XL #               o o                                 ",
"                                            o   X 0 5.F.N 5 n N x ' n m H.4 X               o                                   ",
"                                        .       X X i 6.4.f c Q R ' n L I # X                                                   ",
"                                  o               X - P G.T ! | | Q n I 8 X   X                                                 ",
"                                o               o + X M f.$.T } | ,.S V $ X         o                                           ",
"                                  o   .         o o   < r.V.E W W ,.u = X     o       o                                         ",
"                                                * o X # 9.f.&.&.| ,.< X     o o                                                 ",
"                                                O O   @ k s.u.&.4.n #       O O                                                 ",
"                                                o o     1 3.Z.C.4.4 @     .   o o                                               ",
"                                              .       X @ w G.s.G @   o   . o O o                                               ",
"                                                . . o   X = F.5X2 X X     o     o                                               ",
"                                                        X X S U %   X     .     o           o                                   ",
"                                                  o         X %   .               O           o                                 ",
"                                                          +     o .             o             o                                 ",
"                                        o   o       O o     o O O O + X   X       O     X   o o                                 "
};
