/* XPM */
static char *_94df2b6fe754d22f1de0af79b1138f13Kk6sShs9HJ95sWL[] = {
/* columns rows colors chars-per-pixel */
"64 64 256 2 ",
"   c black",
".  c #010101",
"X  c #020202",
"o  c gray1",
"O  c #040404",
"+  c gray2",
"@  c #060606",
"#  c #070707",
"$  c gray3",
"%  c #090909",
"&  c gray4",
"*  c #0B0B0B",
"=  c #0C0C0C",
"-  c gray5",
";  c #0E0E0E",
":  c gray6",
">  c #101010",
",  c #111111",
"<  c gray7",
"1  c #131313",
"2  c gray8",
"3  c #151515",
"4  c #161616",
"5  c gray9",
"6  c #181818",
"7  c #191919",
"8  c gray10",
"9  c #1B1B1B",
"0  c gray11",
"q  c #1D1D1D",
"w  c #1E1E1E",
"e  c gray12",
"r  c #202020",
"t  c gray13",
"y  c #222222",
"u  c #232323",
"i  c gray14",
"p  c #252525",
"a  c gray15",
"s  c #272727",
"d  c #282828",
"f  c gray16",
"g  c #2A2A2A",
"h  c gray17",
"j  c #2C2C2C",
"k  c #2D2D2D",
"l  c gray18",
"z  c #2F2F2F",
"x  c gray19",
"c  c #313131",
"v  c #323232",
"b  c gray20",
"n  c #343434",
"m  c #353535",
"M  c gray21",
"N  c #373737",
"B  c gray22",
"V  c #393939",
"C  c #3A3A3A",
"Z  c gray23",
"A  c #3C3C3C",
"S  c gray24",
"D  c #3E3E3E",
"F  c #3F3F3F",
"G  c gray25",
"H  c #414141",
"J  c gray26",
"K  c #434343",
"L  c #444444",
"P  c gray27",
"I  c #464646",
"U  c gray28",
"Y  c #484848",
"T  c #494949",
"R  c gray29",
"E  c #4B4B4B",
"W  c #4C4C4C",
"Q  c gray30",
"!  c #4E4E4E",
"~  c gray31",
"^  c #505050",
"/  c #515151",
"(  c gray32",
")  c #535353",
"_  c gray33",
"`  c #555555",
"'  c #565656",
"]  c gray34",
"[  c #585858",
"{  c gray35",
"}  c #5A5A5A",
"|  c #5B5B5B",
" . c gray36",
".. c #5D5D5D",
"X. c gray37",
"o. c #5F5F5F",
"O. c #606060",
"+. c gray38",
"@. c #626262",
"#. c gray39",
"$. c #646464",
"%. c #656565",
"&. c gray40",
"*. c #676767",
"=. c #686868",
"-. c DimGray",
";. c #6A6A6A",
":. c gray42",
">. c #6C6C6C",
",. c #6D6D6D",
"<. c gray43",
"1. c #6F6F6F",
"2. c gray44",
"3. c #717171",
"4. c #727272",
"5. c gray45",
"6. c #747474",
"7. c gray46",
"8. c #767676",
"9. c #777777",
"0. c gray47",
"q. c #797979",
"w. c gray48",
"e. c #7B7B7B",
"r. c #7C7C7C",
"t. c gray49",
"y. c #7E7E7E",
"u. c gray50",
"i. c #808080",
"p. c #818181",
"a. c gray51",
"s. c #838383",
"d. c #848484",
"f. c gray52",
"g. c #868686",
"h. c gray53",
"j. c #888888",
"k. c #898989",
"l. c gray54",
"z. c #8B8B8B",
"x. c gray55",
"c. c #8D8D8D",
"v. c #8E8E8E",
"b. c gray56",
"n. c #909090",
"m. c gray57",
"M. c #929292",
"N. c #939393",
"B. c gray58",
"V. c #959595",
"C. c gray59",
"Z. c #979797",
"A. c #989898",
"S. c gray60",
"D. c #9A9A9A",
"F. c #9B9B9B",
"G. c gray61",
"H. c #9D9D9D",
"J. c gray62",
"K. c #9F9F9F",
"L. c #A0A0A0",
"P. c gray63",
"I. c #A2A2A2",
"U. c gray64",
"Y. c #A4A4A4",
"T. c #A5A5A5",
"R. c gray65",
"E. c #A7A7A7",
"W. c gray66",
"Q. c #A9A9A9",
"!. c #AAAAAA",
"~. c gray67",
"^. c #ACACAC",
"/. c gray68",
"(. c #AEAEAE",
"). c #AFAFAF",
"_. c gray69",
"`. c #B1B1B1",
"'. c #B2B2B2",
"]. c gray70",
"[. c #B4B4B4",
"{. c gray71",
"}. c #B6B6B6",
"|. c #B7B7B7",
" X c gray72",
".X c #B9B9B9",
"XX c gray73",
"oX c #BBBBBB",
"OX c #BCBCBC",
"+X c gray74",
"@X c gray",
"#X c gray75",
"$X c #C0C0C0",
"%X c #C1C1C1",
"&X c gray76",
"*X c #C3C3C3",
"=X c gray77",
"-X c #C5C5C5",
";X c #C6C6C6",
":X c gray78",
">X c #C8C8C8",
",X c gray79",
"<X c #CACACA",
"1X c #CBCBCB",
"2X c gray80",
"3X c #CDCDCD",
"4X c #CECECE",
"5X c gray81",
"6X c #D0D0D0",
"7X c gray82",
"8X c #D2D2D2",
"9X c LightGray",
"0X c gray83",
"qX c #D5D5D5",
"wX c gray84",
"eX c #D7D7D7",
"rX c #D8D8D8",
"tX c gray85",
"yX c #DADADA",
"uX c gray86",
"iX c gainsboro",
"pX c #DDDDDD",
"aX c gray87",
"sX c #DFDFDF",
"dX c gray88",
"fX c #E1E1E1",
"gX c #E2E2E2",
"hX c gray89",
"jX c #E4E4E4",
"kX c gray90",
"lX c #E6E6E6",
"zX c #E7E7E7",
"xX c gray91",
"cX c #E9E9E9",
"vX c #EAEAEA",
"bX c gray92",
"nX c #ECECEC",
"mX c gray93",
"MX c #EEEEEE",
"NX c #EFEFEF",
"BX c gray94",
"VX c #F1F1F1",
"CX c gray95",
"ZX c #F3F3F3",
"AX c #F4F4F4",
"SX c gray96",
"DX c #F6F6F6",
"FX c gray97",
"GX c #F8F8F8",
"HX c #F9F9F9",
"JX c gray98",
"KX c #FBFBFB",
"LX c gray99",
"PX c #FDFDFD",
"IX c #FEFEFE",
"UX c white",
/* pixels */
"                                                                                                                                ",
"                                                                                                                                ",
"                                                                                                                                ",
"                                                                                                                                ",
"                                                                                                                                ",
"                                                                                                                                ",
"                                                                                                                                ",
"                                                                                                                                ",
"                                        . .         * @     &     %     @ *         . .                                         ",
"                                + o .           & .     # + @ , > + + #     X *           . o +                                 ",
"                                    X o . . X o       . <     X .     < .       o X . . o X                                     ",
"                                X               + ; - O     ) =X*X(     O - : @               X                                 ",
"                                X       . # * = *     0 2.wXUXDXSXUXwX2.0     = = * # .       X                                 ",
"                                    X o           s C.ZXIXJXUXUXUXUXJXIXZXZ.d           o X                                     ",
"                                  + #     . 0 n  XMXUXNXHXUXiX6.5.uXUXHXNXUXNX.Xn 0 .     # +                                   ",
"                                . O .   5 ..$XUXLXJXUXUX4XW ; N M - E 4XUXUXKXPXUX$X..5   . O .                                 ",
"                o   X . o     % o   r k.zXUXUXPXUXLX/.v % } ;XIXPX-X{ % b (.IXUXLXUXUXlXk.t   O @     %   $   +                 ",
"                * o     + , * + Z W.UXUXMXHXUXZXq.t : q.jXIXJXUXUXHXIXjXq.> y w.CXUXGXmXUXUXQ.A o ; * &   o   -                 ",
"                    o 2     ' &XUXUXJXUXUXwX;.@ v J.DXIXDXUXUXFXDXUXUXDXIXDXJ.b + -.qXUXUXJXUXUX$X[     > #                     ",
"                . X   y 0.jXUXJXKXIXJX#XU   W 2XPXUXUXUXDXZXIXUXUXIXZXDXUXUXUXPX1XE   I #XJXUXPXHXUXgXq.t . X X                 ",
"                  Z Z.GXUXMXHXUXmXN.a = $.rXUXnXSXPXIXKXUXUXUXnXnXUXUXUXKXIXPXSXbXUXrX$.= s B.MXUXFXMXUXHXC.A                   ",
"                l.DXUXCXLXUXpX3.- g d.MXUXJXGXUXUXUXIXUXKXVXGXUXUXHXCXKXUXIXUXUXUXFXHXUXNXd.h ; 3.yXUXGXDXUXJXl.                ",
"                wXIXDXUX>XH 2 s oXMXUXUXDXUXPXvXCXHXUXUXUXPXUXUXUXUXPXUXUXUXGXBXcXLXUXDXUXUXNXOXs > P &XUXCXUXwX                ",
"                 .fX^.k : [ 9XUXLXIXIXJXJXUXUXUXUXUXPXKXIXUXLXDXFXPXUXIXKXLXUXUXUXUXUXJXKXUXUXPXUX4X..% n E.kX .                ",
"                X X . X a.UXGXUXHXLXUXUXHXUXUXJXIXIXIXIXIXIXIXIXPXPXPXPXUXUXUXIXCXUXUXDXUXPXKXGXUXFXUXp.o o O .                 ",
"                X X . X a.UXGXUXUXUXIXUXKXLXUXUXIXIXIXIXIXIXIXIXIXIXIXIXIXIXUXUXUXUXKXGXUXLXUXUXUXFXUXp.o o O .                 ",
"                X X . X a.UXGXUXKXDXGXIXUXDXCXLXGXGXGXGXGXGXGXGXLXLXLXKXJXJXKXPXFXDXAXUXUXPXCXFXUXFXUXp.o o O .                 ",
"                X X . X a.UXGXUXUXUXUXAXUXIXJXUXUXUXUXUXUXUXUXUXUXUXUXUXUXUXUXUXUXUXPXUXAXUXUXPXUXFXUXp.o o O .                 ",
"                X X . X a.UXGXUXHXLX$X%.<.:.,.2.>.>.>.>.>.>.>.>.;.;.-.;.:.:.-.=.4.5.;.>.$.uXFXGXUXFXUXp.o o O .                 ",
"                X X . X a.UXGXUXUXUXL.@ o                       X     X $ % o     o   . O -XUXUXUXFXUXp.o o O .                 ",
"                X X . X a.UXGXUXSXUXL.  * * * o # # # # # # # # - $ # ; 6 8 > + O & + #   1XPXSXUXFXUXp.o o O .                 ",
"                X X . X a.UXGXUXLXUXI.  - # @ X X X X X X X X X O     + 1 3 $   . X   @   5XUXKXUXFXUXp.o o O .                 ",
"                X X . X a.UXGXUXHXUXK.@ 1 1 1 = 4 ; 6 M.l.B.C.a.h.S.k.V.k.  4 1 > ; 4 $ o -XKXLXUXGXUXa.X . X X                 ",
"                X X . X a.UXGXUXGXUXH.o : ; ; # 1 ; B ZXUXeXUXUXUXUXsXUXuXt 9 $ = & < @ X -XKXPXUXGXUXa.X . X X                 ",
"                X X . X a.UXGXUXGXUXG.  & # #   =   e UXHXJ .XUXHXI.} HXgX+   O @ O = X   -XLXPXUXGXUXa.X . X X                 ",
"                X X . X a.UXGXUXHXUXH.  @ X X   , o i PXNX  ].UXUXd.7 FXcX@ + 1     #     -XLXPXUXGXUXa.X . X X                 ",
"                X X . X a.UXGXUXKXUXK.  +   .     O r MXUXn vXJXUX}.E UXuX# o       O     ;XPXPXUXGXUXa.X . X X                 ",
"                X X . X a.UXGXUXKXUXL.  +   X   o # e KXUXJ fXJXHXXX' UXsX> %       o     :XPXLXUXGXUXa.X . X X                 ",
"                X X . X a.UXGXUXJXUXL.  O   o . %   3 LXKXY 4XUXUX{./ DXfX+   O X   O   . >XPXKXUXGXUXa.X . X X                 ",
"                X X . X a.UXGXUXGXUXK.  o   O X   # t SXPXk.cXJXIXqXh.UXjX%   & +   @   . >XPXKXUXGXUXa.X . X X                 ",
"                X X . X a.UXGXUXIXUXI.  # &   % &   3 UX6XO...&.| X.-.vXSX  # = O #   % . oXUXKXUXGXUXa.X . X X                 ",
"                X X . X a.UXGXUXJXPXY.  O O         h UXUXBXPXKXIXUXvXLXyX< @             #XUXDXUXGXUXa.X . X X                 ",
"                X X . X a.UXGXUXUXUX!.  7 x q t d 9 h b.D.'.D.7.7.A.Z.P.c.r t b r y z %   <XUXIXUXGXUXa.X . X X                 ",
"                X X . X a.UXGXUXGXFXL.@ 2.mXUXUXUXNXGXbXgXzX>.X . K.KXhXkXLXAXBXPXUXVX) O ;XDXIXUXGXUXa.X . X X                 ",
"                X X . X a.UXGXUXIXIXU.  w.UXpXZ.JXDXUXW.2XUXm.# & E.UX&X+XUXFXUXv.gXUX_   ,XUXUXUXGXUXa.X . X X                 ",
"                X X . X a.UXGXUXZXLX^.X u.FXb.: UXUXVXx ,.BXj.    @XGXG U HXPXaX@ L.UX_ o 2XUXBXUXGXUXa.X . X X                 ",
"                X X . X a.UXGXUXUXIXT.  7.UX~.H FXIXUXF m.UXZ.O   `.UX%.r.UXPXBXn ;XUXT   $XUXJXUXGXUXa.X . X X                 ",
"                X X . X a.UXGXUXLXGX~.  w.IX`.| UXSXUX{ _.FXp.o   ).UX1.f.IXPXUXY 6XUXQ % =XUXAXUXGXUXa.X . X X                 ",
"                X . O   p.UXGXUXFXUXU.  u.PXOX~ HXvXUX{ E.UXv.  X (.PX0.p.UXKXIXH 5XUX)   ,XUXFXUXDXUXi.. @ X X                 ",
"                    + X y.UXFXPXUXUX~.. y.JX.X*.UXJXJX9.L.LXj.    W.CXj.B.GXHXUX' 3XUX .X >XUXUXPXDXUXt.o #                     ",
"                # # $ @ u.UXJXDXCXDXY.  7.UXoXq.J.K.I.d.E.UXb.    .XPXH.j.~.S.V.5.7XUX_   *XJXZXFXHXUXy.# & $ #                 ",
"                .       t.UXUXJXUXUX`.  1.UX*Xv.T.S.z.D.'.SXm.O   $XGXR.l.F.J.H.M.8XZXY o 6XUXUXKXUXUXr.                        ",
"                X . + 2 0.fXvXhXjXrXV.> :.FXNXPXZXCXAXUXSXlXs.    G.vXNXGXHXDXCXGXFXjXW > Y.pXfXkXcXdX9.3 @ .                   ",
"                o + X     3 @   + - 2   # 0   = & # @ + + > 3     - - : ;     =   o w o   < * o   @ 2     o O .                 ",
"                    $ X X @   O +   o .       = . O X       + = <     o       X o o   O #     + @ . @ . X %                     ",
"                &       .       .     @ + & #     @   $ . *     o   = #   % *     >     #   o                 #                 ",
"                                                                                                                                ",
"                                                                                                                                ",
"                                                                                                                                ",
"                                                                                                                                ",
"                                                                                                                                ",
"                                                                                                                                ",
"                                                                                                                                ",
"                                                                                                                                "
};
