/* XPM */
static char *f89e966ce7004b06e6a0753a40de6854cMwU3maWxRSITWdL[] = {
/* columns rows colors chars-per-pixel */
"64 40 208 2 ",
"   c #000001",
".  c #090504",
"X  c #0B0906",
"o  c #040509",
"O  c #04090C",
"+  c #0B0B0C",
"@  c #0B070A",
"#  c #120B0B",
"$  c #11110F",
"%  c #030614",
"&  c #0D0D12",
"*  c #050916",
"=  c #110E14",
"-  c #0D1113",
";  c #0C141B",
":  c #131213",
">  c #1D1615",
",  c #1C1816",
"<  c #131519",
"1  c #1B161C",
"2  c #161A1C",
"3  c #1B1B1C",
"4  c #131917",
"5  c #211917",
"6  c #241C1C",
"7  c #1D201F",
"8  c #23231F",
"9  c #0B0F21",
"0  c #091525",
"q  c #151C23",
"w  c #1B1C22",
"e  c #141927",
"r  c #231E23",
"t  c #1C2124",
"y  c #1C242B",
"u  c #1C262B",
"i  c #182339",
"p  c #242324",
"a  c #2C2423",
"s  c #272823",
"d  c #292927",
"f  c #23262B",
"g  c #29262C",
"h  c #242A2D",
"j  c #2A2B2C",
"k  c #342D2B",
"l  c #31312E",
"z  c #252C33",
"x  c #2A2D32",
"c  c #242C3C",
"v  c #202537",
"b  c #312F30",
"n  c #2D3135",
"m  c #2B313A",
"M  c #25323A",
"N  c #343433",
"B  c #393937",
"V  c #35363A",
"C  c #3C363B",
"Z  c #35393D",
"A  c #3B3B3A",
"S  c #3A3736",
"D  c #413439",
"F  c #413839",
"G  c #41413E",
"H  c #2C3544",
"J  c #2C344B",
"K  c #3B3D42",
"L  c #353B47",
"P  c #423D43",
"I  c #3D4145",
"U  c #3D424B",
"Y  c #3B4454",
"T  c #394757",
"R  c #424244",
"E  c #434649",
"W  c #4B4C4C",
"Q  c #494648",
"!  c #434C54",
"~  c #4B4E51",
"^  c #454C5A",
"/  c #534C53",
"(  c #4C545C",
")  c #49535C",
"_  c #535353",
"`  c #54565D",
"'  c #5D565D",
"]  c #5A595B",
"[  c #564A4C",
"{  c #464D60",
"}  c #4E5863",
"|  c #495360",
" . c #535A64",
".. c #5C5E63",
"X. c #525C6B",
"o. c #5B5966",
"O. c #4C5D71",
"+. c #505A73",
"@. c #655F63",
"#. c #5E6267",
"$. c #5E6A7E",
"%. c #596379",
"&. c #676564",
"*. c #6B6266",
"=. c #66666C",
"-. c #656A6D",
";. c #6B6C6D",
":. c #6D6569",
">. c #736468",
",. c #6B6E73",
"<. c #646775",
"1. c #776E74",
"2. c #6E7176",
"3. c #73767B",
"4. c #7C747A",
"5. c #7A7879",
"6. c #80767E",
"7. c #686F81",
"8. c #677081",
"9. c #777C84",
"0. c #767B87",
"q. c #8A7E83",
"w. c #77808C",
"e. c #7F8388",
"r. c #75849C",
"t. c #7D879E",
"y. c #7F92AB",
"u. c #7689A7",
"i. c #81848A",
"p. c #858A8D",
"a. c #898A8E",
"s. c #918488",
"d. c #91928D",
"f. c #828A92",
"g. c #8B8D92",
"h. c #838790",
"j. c #988C93",
"k. c #8A9098",
"l. c #91959A",
"z. c #94969A",
"x. c #A1949D",
"c. c #A1A29D",
"v. c #8493AB",
"b. c #8C98AB",
"n. c #9B9EA4",
"m. c #969BA4",
"M. c #8496B2",
"N. c #8B9CB7",
"B. c #818DA7",
"V. c #9EA1A5",
"C. c #97A0A9",
"Z. c #9BA3AE",
"A. c #8FA4BF",
"S. c #96A3BC",
"D. c #9BA6BA",
"F. c #A3A5AB",
"G. c #A7AAAB",
"H. c #ABAEB2",
"J. c #A5ADB9",
"K. c #AAB1BC",
"L. c #AFB0B4",
"P. c #B1B2B7",
"I. c #B4B5BB",
"U. c #B6B9BE",
"Y. c #B9B9BE",
"T. c #B9BAB5",
"R. c #C2C3BE",
"E. c #9BACC5",
"W. c #9BADCC",
"Q. c #95A7C4",
"!. c #9CB3D1",
"~. c #A1AEC1",
"^. c #A4B3C6",
"/. c #ABB3C5",
"(. c #A4B3CC",
"). c #ABB8CA",
"_. c #B5B9C3",
"`. c #A3B4D3",
"'. c #AABDDC",
"]. c #A8BAD7",
"[. c #B2BCD5",
"{. c #BEC2CB",
"}. c #B4C4DD",
"|. c #ACC0D9",
" X c #ACC2E3",
".X c #AFC8E7",
"XX c #B3C4E0",
"oX c #B6CCEC",
"OX c #B9CCEA",
"+X c #B7C9E7",
"@X c #BDD1EC",
"#X c #B8CFF1",
"$X c #BCD2F3",
"%X c #C7C7CC",
"&X c #D2D3CE",
"*X c #CACDD3",
"=X c #C7CFD8",
"-X c #C4CBD4",
";X c #CED4DC",
":X c #D2D5DB",
">X c #D6D9DE",
",X c #C0CEE9",
"<X c #C4D2EC",
"1X c #C1D3F1",
"2X c #DADEE7",
"3X c #DFE6EE",
"4X c #E4E6EB",
"5X c #E0E7F1",
/* pixels */
"                                                    o                                   o                                       ",
"                                          o             o                                     o                                 ",
"                                                                                                                                ",
"                                                                .                         o                                     ",
"                                                                                                                                ",
"                                                                  .         .                                                   ",
"                                    o                                                                                           ",
"                    o                               o           $ 7 s s p 8 4 X   .                                             ",
"                                  o   o & O   o   o o   O     & ] T.&XR.T.c.;.W B k $ X .                                       ",
"          . .           O o   O 4 x U ( #.` V - o % p n Z V < & _ c.G.d.5.&.;._ G G l 7 + . .                                   ",
".   o .       o     o   O < K ,.p.l.V.V.z.p.` u q E i.g.n.g.f   , G B 8 4 $ W R B j 7 X o   4                                   ",
"          X o   o o w E 2.-.3.V.F.f.,._ K x 2 O = x ....~  .g O $ 7 # X . X A x s , $     + d                                   ",
".     X         O W l.H.G.2.~ E n t 3 4 < < < : & & & : g n & @ X X   .   . $ X + X O     o p                                   ",
"          : p Z ;.d.p...E I Z x j p t p p d p 3 : + + + + . +     X + $ o $ + : $ + X   . : p +                                 ",
"  .     4 ;.3.;.] _ U E U I Z I A A S l j j p : : , 1 + $ # : + + X 4 $   + : 4 4 : X   o - : o                                 ",
"      . 3 _ _ E G A V G I I I I B N j 7 8 3 6 p p d A s > . .   +   $ O   X - . O + + O + & . o                                 ",
"        x R R A k k R A l j j h h j w t q u u u y 3 j 7 X   .   + o               o + < < < & o                                 ",
"      X j I C S D k a 8 d 3 ; t t h w c H T T #.^ w 4 . $       o o o o   o o . . + & + 4 y 2 +                                 ",
".   . - w r w p r > 1 = - t Y  .8.0.t.b.S.(.^.(.b.^ e o < o   o @               + : + + w d < +                                 ",
"      - r 6 g j S r P = * } ).[.^.[.XX].`.!.W.(.v.{ y e q o o           o     . . . @ # p w + &                                 ",
"    o = P / q.0.@.P 1.= % o.,X(.Q.N.y.N.A.y.r.r.8.H u h < & O + < .     X .           # > .   :                                 ",
"  o o w / @.j.6.>.P 1.* 9 +.,XW.`.A.u.y.Q.A.E.^.b.T u m 2 p 4 - g 2 o . 4 $ . .   . .   o     , .                               ",
"      & P ' x.j.>.P o.* 9 +.XXW.`.`.!. X|.W.|.^.(.) ; 2 & + o O : r w 4 : + # $   o .     o @ 4 .                               ",
"    @ 1 P >.j.q.>.D P * % 7.1X'.W. X X.X.X X Xy.).} ; ; o o 2 ~ #.3.,.....@.~ R P V N N x g p j O o                             ",
"      1 [ *.s.6.>.F 6 @ 9 $.<X#X X#X X#X#X!.|.y.^.) ; h O o y G.;X>Xe.*XU.P.I.%X%Xg.Y.P.L.F.P.g.-                               ",
"      r @.*.1.>.[ F 6 @ % +.[.+XoXoX'.#X$Xu.v.O.v.( 0 L -   m J.-X;X .;Xm.e.F.H.4X3._.H.V.H.F._.4 .                             ",
"      3 *.*.*.[ > a 6 @ o Y D.}.}.W.'.$X$XN.T 0 | T ; ( ; o h p.( ) k.k.9.#.,.,.3.<.9.p.q.h.m.o.:                               ",
"    . : *.6.1.Q # a 6 @ O E w.N.(.v.`.OXXX!.i 0 H U e -.q % M Z.w.) w.C.0.} I U K K K Q ` l.m.x <     .                         ",
"      < ` 4.4.F 6 k > . . n  .8.t.t.Q.|.OXB.i L Y L m <.e 9 c )./.Z.=X=X{._.V.k.9.i.F.z.Y.:Xg.3.2 .                             ",
".     & g P Q r 5 a 5 # # p K  .%.r.S.K.).<.i i { o.7.0.0 * i J./.=X3X3X2X;X*XI.*XY.%X:X:X4X4Xn.=                               ",
"          o & @ # . . . @ # < q q M T T ) ) t z L -.p.-.; o c t.C.J._.h.o.! ` #.;.2.,.=.=.a.%Xl.o     .                         ",
"        o o     . . . . .     o O   O O O ; O 4 - 3 p 7 &   - z Z m x < o + + O < : = . = = R A                                 ",
"                                                                  o O + o . o o                                                 ",
"                                                o                     .                                                         ",
"                                                                                                                                ",
"                                                                                                                                ",
"                                                                                                                                ",
"                                                                                                                                ",
"                                                                                                                                ",
"                                                                                                                                "
};
