/* XPM */
static char *_6aaabc099b84e0cb0508f64968f79e1GYMhGR7fikJJcpTT[] = {
/* columns rows colors chars-per-pixel */
"64 64 250 2 ",
"   c #2C1402",
".  c #3C1D0A",
"X  c #371707",
"o  c #3A1D13",
"O  c #350C00",
"+  c #3B230E",
"@  c #35230C",
"#  c #3C2313",
"$  c #3D2A14",
"%  c #3D2C1B",
"&  c #392316",
"*  c #3E3218",
"=  c #3D2C22",
"-  c #441C0B",
";  c #461B09",
":  c #441E13",
">  c #48230C",
",  c #442313",
"<  c #4A2414",
"1  c #442B16",
"2  c #4B2B15",
"3  c #43241A",
"4  c #432B1B",
"5  c #4A2C1B",
"6  c #4D251A",
"7  c #522B1C",
"8  c #572819",
"9  c #44321C",
"0  c #4C331D",
"q  c #57341D",
"w  c #51220E",
"e  c #4B2E22",
"r  c #462C22",
"t  c #562E24",
"y  c #443223",
"u  c #4C3422",
"i  c #4C3827",
"p  c #533325",
"a  c #5B3524",
"s  c #543B25",
"d  c #5B3A25",
"f  c #543C2B",
"g  c #5B3B2B",
"h  c #55362B",
"j  c #5B3D32",
"k  c #563C32",
"l  c #633C2C",
"z  c #633729",
"x  c #633D33",
"c  c #6B3C36",
"v  c #743E38",
"b  c #54412C",
"n  c #5B432E",
"m  c #5C4333",
"M  c #5C4838",
"N  c #5F503B",
"B  c #64432D",
"V  c #69462E",
"C  c #634433",
"Z  c #6B4435",
"A  c #644A36",
"S  c #6A4A36",
"D  c #63443A",
"F  c #6C443B",
"G  c #644B3C",
"H  c #6C4B3B",
"J  c #73433B",
"K  c #734C3B",
"L  c #774839",
"P  c #6C523D",
"I  c #64523D",
"U  c #73523D",
"Y  c #7C563F",
"T  c #5A5145",
"R  c #6D4C42",
"E  c #654D42",
"W  c #7B4542",
"Q  c #744C43",
"!  c #7B4C43",
"~  c #764946",
"^  c #6D5343",
"/  c #6D5944",
"(  c #6D5B4B",
")  c #675548",
"_  c #745344",
"`  c #7B5444",
"'  c #74554A",
"]  c #7C534B",
"[  c #735D4B",
"{  c #7C5A4B",
"}  c #795B46",
"|  c #745E52",
" . c #7B5D53",
".. c #7C624D",
"X. c #75614D",
"o. c #756353",
"O. c #7C6352",
"+. c #7B6859",
"@. c #84483C",
"#. c #8A4F3C",
"$. c #824B43",
"%. c #824E4B",
"&. c #8A4C44",
"*. c #845544",
"=. c #83544B",
"-. c #8C544B",
";. c #835B4D",
":. c #8B5B4C",
">. c #885845",
",. c #965A4B",
"<. c #845C53",
"1. c #8B5C53",
"2. c #875653",
"3. c #935D53",
"4. c #9C5D54",
"5. c #945C57",
"6. c #914F46",
"7. c #A55D54",
"8. c #A45D4E",
"9. c #85624D",
"0. c #94634E",
"q. c #846353",
"w. c #8C6355",
"e. c #846A55",
"r. c #84655A",
"t. c #8C655B",
"y. c #856B5C",
"u. c #8C6A5B",
"i. c #8B6957",
"p. c #936355",
"a. c #9C6354",
"s. c #9C6A56",
"d. c #93655B",
"f. c #9B645B",
"g. c #936B5C",
"h. c #9B6B5D",
"j. c #946954",
"k. c #89725D",
"l. c #9C715D",
"z. c #93725E",
"x. c #A2665D",
"c. c #A36B5C",
"v. c #A86A5B",
"b. c #A3715E",
"n. c #AB735E",
"m. c #8C6D62",
"M. c #836D62",
"N. c #946D62",
"B. c #9B6D63",
"V. c #996B67",
"C. c #857363",
"Z. c #8C7463",
"A. c #8C786B",
"S. c #937363",
"D. c #9C7365",
"F. c #9B7967",
"G. c #9C746A",
"H. c #957B6B",
"J. c #9C7B6B",
"K. c #937767",
"L. c #9A7D71",
"P. c #957B72",
"I. c #A36C62",
"U. c #AA6C64",
"Y. c #A76B66",
"T. c #A47365",
"R. c #AB7364",
"E. c #A4746A",
"W. c #AB746B",
"Q. c #A37B6C",
"!. c #AB7B6C",
"~. c #A67A66",
"^. c #B37B6C",
"/. c #B47768",
"(. c #A47C72",
"). c #AB7D72",
"_. c #A97874",
"`. c #B37C73",
"'. c #B97D73",
"]. c #B37B75",
"[. c #9C816B",
"{. c #9C8374",
"}. c #998577",
"|. c #94886F",
" X c #A4816C",
".X c #AD836F",
"XX c #B5826E",
"oX c #A48373",
"OX c #AB8374",
"+X c #AB8976",
"@X c #A3857A",
"#X c #AB847A",
"$X c #A58A7B",
"%X c #AB8B7B",
"&X c #A68875",
"*X c #B48374",
"=X c #BB8474",
"-X c #B3837A",
";X c #BB847B",
":X c #B38B7C",
">X c #BA8B7C",
",X c #B88A75",
"<X c #AD917E",
"1X c #B7917D",
"2X c #C3877C",
"3X c #C0917F",
"4X c #AB8D82",
"5X c #A58D81",
"6X c #B48D83",
"7X c #BC8D82",
"8X c #BD8985",
"9X c #AC9284",
"0X c #AB9689",
"qX c #B49384",
"wX c #BB9384",
"eX c #B4958A",
"rX c #BB948A",
"tX c #BD9A8B",
"yX c #B69A8B",
"uX c #B79D92",
"iX c #AE9A93",
"pX c #BBA497",
"aX c #BDA08E",
"sX c #AE9C93",
"dX c #C28C82",
"fX c #C78C86",
"gX c #C29385",
"hX c #C4958A",
"jX c #CC958C",
"kX c #C49B8C",
"lX c #C89889",
"zX c #C59E92",
"xX c #CC9A94",
"cX c #CBA394",
"vX c #C6A798",
"bX c #D3A89A",
"nX c #C5A389",
"mX c #C6AEA1",
"MX c #C9B4A7",
"NX c #D5B4A8",
"BX c #D8B9B4",
"VX c #CCB9B2",
"CX c #E3BDB6",
"ZX c #E9B9AF",
"AX c #DAC1B7",
"SX c #E8C4BC",
"DX c #E5C6C2",
"FX c #F4D2C9",
"GX c #FFE5DC",
"HX c #FFEBE4",
/* pixels */
"H.P.' ( o.o.C.M.A.sX0X+.+.o.R E T T T ) +.+. .1.g.G.!.Q.OX:X%XoXQ.&XF.r...^ G o./ +.k.k.|.K.H.|.yX9XoX&X&Xz.9.k.9.k.X.( C.M T ) ",
"uXvXP.P.}.H.|.M.5XsX5X|.0X0XP.+.) | +.) | +.N.Y.Q.W.T.h.I._.(.B.T.D.I.Q.:X+Xz.e.{.S.e.e.y.z.u.w.} ;.9.g.F.g.z.+XF.+X9XeX9X| A.pX",
"pXvXuXpXVXMXMXMXpXMXmXpXmXMXuX5X .A.r.~ ] 2.5.7.'.^.W.U.'.;X'.W.x.7.Y.W.W.!.~.h.!.w.1.h.T.*X].d.f.I.I.I.n.a.0.n.'.^.;X7X8X~ M.rX",
"vXNXMXBXAXMXMXAXMXMXMXpXMXNXvXuX~ r.] c 2.V.5.W 4.7.x./.'.dX8X].'.Y.W.Y.-.&.3.! `.*.! -.:.T.;XR.I.T.T.R.n.v.c.n./.R.^.;X-X%._.xX",
"qXuXvXyX4X}.}.pXpX}.H.@XvXNXmXeX) M.M.' w.E.T.d.&.-.p.h.G.Q.Q.V.I.:.3.d.h.!.Q.<.` l ` g.w.D.OXD.u.g.j.j.~.s.0.0.b.,XgX.X5.c V.8X",
": 3 e 3 3 & & M f & o e h F ' D k |  .h e g F ` ` L Q S D C G G ;.;.L Z a x A g H ^ u.J.g.S.D.w.i.e.} ..9.9.Y V j.l.b.;.R x t.{ ",
"Q j D m R D r m M i k D g x Q ( M.5X}.o.A G ` 9.} H n s u 9 % % O 3 p , - 0 P y.O.P s + X X - 1 X @     @ > + > > > > ; d Z q.a ",
"zXoXOX#XvXvXH.L.{.q.r.H.G.L.#XJ.}.0X$XS.u.g.w.w.D.g.q.q.O.| ^ M ;.).OXD.J.F.S.F. XJ.u.w.g.g.1.1...e.X.S Y Y >.j.0.0.s.b.!.).lXT.",
"Q.J.N.i.F.qXyX@Xy.N.S.N.F.OX#XQ.#X_.V._.Y.W.3.-.I.I.%.2.2.~  .8XbX2X/.].W.f.1.5.s.f.R.`.U.Y.x.x.-X!.:.*.n./.v.n.0.8.8.8.8.6.6.8.",
"g.D.D.g.oXwXqXJ.S.r.r.F.oX(.).:XE.E.5.E.4.x.6.,.4.4.5.5.] c 2.#XdX'.Y.7.f.x.x.I.I.5.7.W.x.Y.U.U.`.T.,.>.v.v.,.#.8.8.8.8.8.8.7.v.",
"2.1.t.t.F.#XOXm.q.{ ;.g.G.B.N.G.d.d.1.d.1.-.-.3.&.5.V.V.2.~ t.V.W.*X].].`.OX!.D.Q.s.B.I.f.f.x.f.D.d.K J :.x.,.0.0.8.,.0.8.4.7.4.",
"=.=.! Q { N.g.;.Q q.t.w.g.B.d.! u.y.r.i.w.p.p.f.B.d.2. .k D M. .] t.G.#X%X1X%X&X#XOX#X#X!.T.E.B.J.Z.9.` ;.0.j.b.s.s.c.b.T.x.d.p.",
"; ; ; O - , - X g S K c Z L J 7 u * $ $ 9 2 2 2 2 2 5 k D ) +.T u 1 1 s s 9 u n s f m A d g C x f k M G C S H K K U U U K H S S ",
"T.E.W.E.!.).D.u.Q.D.h.D.T.B.B.g./ I I I } H H Z g F ' J.eXiXiX+.y.[ [ o./ M n G m m A C d A ` Q P.P.L.m.G g d a V V l d l S K P ",
"7XgXdXhXkXkXwX:XkXwX7X>X7X;X*XOXJ.K.oXoX>X!.*X`.fXfXV.V.V.V.P.V.N.g.D.OX+X XS.S.w.;.;.*.=.d.I.N.] ~  .2.! 1.R.R.c.a.-.,.I.).!.B.",
"lXgX7X7XrXkXcXkXwXcXcXwX7XhX*Xd.2.<.Q.E.>XW.'.'./.jX'.'.;X_.Y.E.E.T.B.p.d.s.w.=.L c Z @.6.I.U.,.%.W 2.5.-.4.R.x.&.L v @.f.W.f.L ",
"ZXbXlXbXbXcXzXbXkXkXkXcXxX].5.W ! d._._.E.R.W.U./.'.2X2X2X/.^.I.W.c.I.~.W.L p.>.L @.&.-.6.&.@.@.@.@.@.&.a.x.a.x.6.&.@.&.c.W.c.a.",
"OXhXNXNXbXvXkXuXtXrXqX6X).B.1.:.R N.].G.d.T.!.c./.=XXX2X=X^.`.~.T.d.d.j.w.c ;.K ! :.B.T.4.,.4.x.$.&.:.T.,X7X>XgX~.s.` =.B.T.N.B.",
"  $ 4 1 * * * $ @ @ + @ X   . 3 3 ( r.A q n B q q q d q q q q u f p 0 0 s s / N M A M A R D C g A m A _ ..O.[ | | N k T | T y % ",
"[ P n b b n M N / / X...{ X.9.k.[ H.L.O.H U Y K U U U B d m n m b f b b M ( k.+.n i 9 4 s f s 0 i & @ 9 y y r r i % y ( A.+.M T ",
"Q.D.F.Q.g.} q. XtX1X1X1X-XOX*X-X:XwXqX:X+X,X>X,X*X,X1XE.S.).G.L.J.S.g.y.q.H.H.e.+.|.&X XK.F.%XrXy.' M.5XiXuXmXuXiX}.P.iXVXVXmXVX",
"~.s.h.~.l.` 9.!.-X~.T.T.R.R./.^.=X!.I.R./.^.^.^.R.T.=Xp.2.V.V._.).T.D.T.t. Xg.9.9.H.%X+XoXOX+X%Xt.' G.NXSXSXDXCXDXDXBXBXAXBXVXDX",
"2X^.n.c.a.#.:.R.!.n.v.v./.^.2X2X2X'.v.c.n./.^.R.'./.2X3.-._.V.-X^.x.U.`.E.hXQ.~.!.#X:X+XwXlXhX*XN.Q G.NXCXCXCXNXBXBXBXCXDXDXBXDX",
"/.>XlX^.L z V 0.*X.X^.!./.U.v.v.!.^.n.,.v.2X2XR.=XR.-X=.Q G.m._.fX`.=XhX;XbX*X#XOXwXrX1XqXkXbXbXG.Q B.NXCXCXFXSXFXGXGXGXHXHXHXHX",
"2 2 2 > + d P V P U ..Y Z l l q Z a d K q V q q q V 2 b Z.' y ^ (.1.` ] u.z.u.9...q.e.k.S.H.K.k.n V P P / U P /  . .X.+.k.k.I +.",
"U P P G G ..k.e.M 0 1 1 , q q 2 d s 0 V n V V V P ..P ..|.M.E | x a 6 q g g 4 X   $ 0 b C P S B ..[.|...P b 0 s m m $ @   9 * N ",
"w.{ q.e.q.k.J.S.i.} U Y ` =.2.W 9.z.} F. XF. X X.X+X X&XqXyX4XeXrX7X;X-X6X:XD.} z.OXwXtXzXNXNXcX1X3X3X1X<X X X&XvXmXvX<X9.[.|.&X",
";.! ` ;.=.{ t.m.] _ ;.` L ! 2.2.{ D.S l.~.l.b.s.~.!..X.XoX6XrX:XdXdX;X`.-X*Xp.Z p.E.).E..X>X3X2X1X,X Xl..X.X~.!.g.~.gX1X} w.i.u.",
"=.v W 2.%.%.5.m.=.! W J v 6.Y._.5.E.c 3.I.c.R.R.R.=X3X3X2X2X>XW.dX;X=X`.=XW.-.z T.].;X'.2XjXfX2X3X3XXXXXdXdX].`.]._.fX_.Z ! %.Y.",
"V.5.d.E.G.E._._.d.=.~ %.2.Y._.Y.5.N.J 1.p.h.R./.XX=X2XXX/.XX>X^.W.W.W.).!.B.! z !.*X>X7XfXjXjXdX3X3X2X2X;X_.Y._.-X_.G.d.z J J d.",
"h h k x j j j h h r e h j x z 6 h k k R a d a B L L V B l V H U C n A P A s p b P m g C J Z Z Z x D B s r o o 3 o o = r h ) k D ",
"x j E D k k k = y e h h e t x x M E Z.oXU A 7 2 2 q q q q 0 @ + 5 1 9 s * $ b O.k.P s p a q d B i e # 4 k D E  .E  .| | P.mXA.+.",
" .Q ' <.x <.g.J.1X<X.X.XXX,X2X,XXX,X9.0.~.b.~.~.!.~.~.D.9...{.yXtXkXkX6X+X1XtXcXbXvXwX>X>X3X,X.XwX} g.1XOXOXQ.D.E.~.D.h.D.g.S.:X",
"R c c D e K D.~.j.l.~.n.n.v.n./.n.s.#.,.n.c./.R.>X.Xj.H l i.1XnX-X7XkXhXhXwXwXkX1XgXnX3X,X^.R.b.OX..F.:X~.D.h.B.!.!.*X*X!.T.T.!.",
"W ] Q F x K qX+X~.~.XXXXXXn.n.n.n.0.Y :.0.s.R.s.*X3X,Xw.K S.qXoXOX:XwXzXkXkXwXwX:XkXkXhX>XXX~.T.w.K i.z.j.T.E.T.~.T.).*XT.l.h.g.",
"x Q F x Z Z :Xg.OXF.l.n.XX2XXXn.l.#.#.0.>.0.T.d.p.!.OX{ l 9.%XqX6X:XrXhXkXtXtXnXcXnXwX1XgXlXgX-X.Xg.D.l.h.*X*X!.;X!.`.!.D.E.OX~.",
"t j t t x C oX} U H l V >.0.0.,.P q V L c L >.:.D.!.Q.=.h z Q Q m.t.t.d.u.r.y.N.y.q.` ` *.p.p.;.2 8 Z L *.I.!.`.h.a.1.*.` 9.g.i.",
": 3 o : 5 g u.U , > > w ; ; 8 q >   + - X : > 7 ; X < t h R R j : : o 3 # X X +   X - X X X - - a L w.L z q 8 8 w z - O - < < > ",
"V.m.m.L.z.&XyX&XK.[. X~.l.j.j.g.k.{ q.} <.i.' t.N.] ! ] 1.(.5XS.m.<.r.M.O.^ ' O.u.K.F.k.p.t.d.j.g.Q.7X!.f.1.L -.1.).9.K i.F.y.D.",
"qX5XrXbX$XyX+XoX X X&X:XwX:X.XD.oXA.K.y.OX4XN.#X].6XrXrX6XrX#X<.P.m.m.m.O.'  .Z.9X+XL.F.Q. XJ.g.~.T.E.B.`.-XI.B.T.hXD.` oXyX+XaX",
"qXeXeXeX4X%X<X9XqX<X1XwXtXwXOXD.y.G P.pX@Xm.<.m.m.).rXuXrXrX#Xr.m.{.r.K.r.m y.H.H.K.[.Q.S.D. XOX7X-XE.E.].Q.f.V.Q.Q.` Z N.{.J.%X",
"6X6XqX6X%X%X<X9X%X%X<XqXwXwXOX(.P.( P.eXL.L.G.G.G.(.rXxXxX4XG.G.<.V.N.eXK.C u.%X%XoXoX&XQ.~.~.D.d.#XgX7X-X).B.V.1.N.;.<.%X6X{.%X",
"Q.(.J.J.D.H.J.[.S.H.F.(.oX!.J.G.Z.O.{.5Xm.N.V.G.d.d.D.(.(.t.t.g.1.g.m.G._ n z.z. Xz.z.l.j.j.0.Y ;.Q.-XG.w.d.I.I.).V.K J u.m.S.@X",
"7 6 6 , # , 3 # # o , , , , < , o r ' D o X o : : 6 : - X : : - : 8 6 < ; S F.P 7 ; ; > w w ; X a e : ; X 6 t t 7 7 7 c ] Z 2 5 ",
"Q ! Q F Z S F D D C x m j l x x ' m.4XF. .<.<.1.w.;.` K ;.w.9.K L :.j.p.w.:XbXl.>.Y #.9.#.9.0.#.J u p F F F F z z c <.).wXG.{ Q ",
"E.~.D.g.g.S.N.r.m.t.<.<.<.<.2.<.R ' <.' 2.(.B.N.!.p.d.:XnXwX&X+X>X*X>X>XT.~.XX~.XX.XXXXXXXXX2XXXF.q.L.tX6X#X:X-X_.V.t.N.N.N.N.S.",
"B.B.B.w.2.r.{ G <. .] ' { { ] ~ R F F c t.:X).Q.d.Y `  XtX,XQ.Q.!.s.c.n.c.s.b.,Xb.c.b.n.s.n.n.n.} ' S.@Xm.t._.Q.).G.B.N.t.g.V.N.",
"I.E.B.:.=.=.J h m.<.] ] =.2.] ~ c F Q J d.-X!.).T.D.h.T..X&XQ.g.c.h.h.s.~.!.s.s.b.s.n.XXn.n.n.8.<.r.6XtXE.(.:XG.B.d.V.Q.).qXzXzX",
";XT.3.=.2.W g x V.2.2.d.d.2.W W v J v c T.E.I.I.B.E.5.V.6X-X8XV.T.*X,X.XT.OX>X>X2X>X=X*X^.R.W.*XD.t.D.7XkX>X>XhXwX;XlXbXbXnX1X+X",
"j.j.3.w.w.Q c R  .R F ] 2.2.2.%.J Y @.L B.f.w.1.1.<.c ~ ~ R ] ~ } L A H } ` K l K K K K Z z l F a G ' H Q w.D.B.d.Z S i.} q s S ",
"X > . . + o 4 M A.' k j m f 3 : , 1 2 X g i 5 5 4 u k y.+.E h r i 9 i b s # o @ # $ 1 4 3 + 3 4 y ( o.M r i r o $ + $ $ @ @ * 9 ",
"9.e.....+.y.P.0XmX0X}.}.$X@XH.S.i.y.[ b { [ X.o.[ [ | C.A.A.C.C.C.k.C.A.y.[ ) ) / [ ..O.O.O.O.+.+.C.P.|.A.| ( | G X.+.O.X.|.|.|.",
"1X3X3X3XnX1X%X6X#X(.L.).:X:X>X6XwX:XS.Q S.N.Z.i.K.r.' G ~ M.m.m.Z.y. .'  .<.R t F R Q _ ~ ' ~ ~  .G D '  .~ ~ 2.] Z ] F.|.z.K.K.",
"2X,XXXXX3X,X!.).).).).W.Y.I.x.c.*XOXB.` Q.).Q.B.).).4XG.(.eX(.m.m.V.d.=.] 2.~ x F W ! ~ W W ~ F ] Q R ~ ]  .~ W J c ] V.D.g.w.{ ",
"/.XXn.n./.R.!.;XW._.W.U.c.U.U.U.I.W.f.L E.).!.E._.E.]._._.8X).#XV.E._.G.2.W W ~ v W W W W W %.W c ~ ~ ] 2.5.2.W c v 2.5.5.B.B.2.",
"8.XX2Xn.c.p.p.T.T.I.B.f.f.c.c.R.~.).N.J w.d.D.S.m.r.L.G.G.#XP._._.V.N.G.V.] ~ c z c c c W %.%.~ R ~ ~ ~ c c ~ %.2.v %.E.G.1.N.OX",
"q q B q q d g f h p A C Z z 2 } S n b A A $   $ &   o & & = = % r = o & h M h X 3 3 & : r r 3 o = = o & & o X : o O k ' R g u G ",
"V V n q s s f u u 9 1 1 s d + , + $ u I +.[ ) o.o.o.o.N i i k ) G T T E o.C.+.( D E M M x E j i = = = r y h k j x e j r.@X{.^ f ",
"1X,X X[.[.[.K.y.L.<X{.J.&XoX~.z.S.K.K.J.<X&XH.H.}.<XA.M.}.sXiXpX0XiXeX4X5X5X5X@X9X5X@X$X4XeX5XP.M.+.A.P.P.5XiXrX#X(.eX).L.#X9XbX",
",X.X.X XOX Xt.] N.@XJ.OX:X!.wX>X1X6X!.T.oX#X(.Q.J.{.]  .6XpX4X@X#X6XeXqXrXeXrX6X).L.V.B._.6X-X(.P.P.@X#X#XrXhX)._.E.6X_.).:XOX#X",
",X3XXX2X*XE.=.R 2.2.2.-XfX-XjX;X'.`.W.h.].;X'.-XW.].%.%._.).-X8X-X>X7XgXdX8X8X:X8X`.].].dXfX2X).] 2.V.V._.;XW.-.Y.I.W.U.'.fXI.6.",
"3X3XnX3X7X_.1.] 2.] V.rXrX].8XdXhXjXfXfXjXxXdX>X8X).v ! _._.fX8XhXkXxXkXfX7X-X).*X-X-X*X8X;XE.p.c 2.m.V.-XxX'.Y.5.7.x.@.v ,.4.c.",
"U U Y Y T k k k +.+.5X5Xm.y.S.(.g.D.S.D.).(.N.G.N.{ e R q.G Q j ' } ..9.9.O.i.u.i.i.i.i.g.w.{ H 0 +. .D i.F.q.{ 1.;.;.Y ` j.:.9.",
"$ $ $ * & = = T A.) +.M y M m f C g d g x p p k k D D L.M.r f 4 9 9 9 9 $ + 1 s 2 9 1 1 5 u 0 9 ( 0XA.k I G 2 q 7 < 7 2 2 d q d "
};
